<?xml version="1.0" encoding="UTF-8" standalone="no"?>
<!DOCTYPE svg PUBLIC "-//W3C//DTD SVG 1.1//EN" "http://www.w3.org/Graphics/SVG/1.1/DTD/svg11.dtd">
<!-- Created with Vectornator (http://vectornator.io/) -->
<svg height="100%" stroke-miterlimit="10" style="fill-rule:nonzero;clip-rule:evenodd;stroke-linecap:round;stroke-linejoin:round;" version="1.1" viewBox="0 0 820 312" width="100%" xml:space="preserve" xmlns="http://www.w3.org/2000/svg" xmlns:xlink="http://www.w3.org/1999/xlink">
<defs/>
<clipPath id="ArtboardFrame">
<rect height="312" width="820" x="0" y="0"/>
</clipPath>
<g clip-path="url(#ArtboardFrame)" id="Layer-1">
<path d="M-3.19744e-14 5.32907e-15L820 5.32907e-15L820 312L-3.19744e-14 312L-3.19744e-14 5.32907e-15Z" fill="#000000" fill-rule="nonzero" opacity="1" stroke="none"/>
<g fill="#ffffff" opacity="1" stroke="none">
<path d="M116.038 170.601C112.217 163.213 106.421 157.163 98.6515 152.45C90.8818 147.738 82.0294 145.381 72.0944 145.381C67.509 145.381 62.9235 145.891 58.3381 146.91C53.7527 147.929 49.6768 149.585 46.1104 151.877C42.5439 154.17 39.678 157.1 37.5127 160.666C35.3474 164.232 34.2647 168.436 34.2647 173.276C34.2647 181.682 37.7038 188.115 44.5819 192.573C51.46 197.031 62.2867 200.788 77.0619 203.845C98.2057 208.176 113.809 214.481 123.871 222.76C133.934 231.039 138.965 242.184 138.965 256.195C138.965 266.385 136.991 274.983 133.042 281.988C129.094 288.994 123.935 294.726 117.566 299.184C111.198 303.642 104.001 306.826 95.9767 308.737C87.9523 310.647 79.8641 311.603 71.7122 311.603C58.2108 311.603 45.0914 308.8 32.3541 303.196C19.6169 297.592 9.17232 288.803 1.02047 276.83L21.6548 261.545C26.2402 269.442 32.991 276.066 41.9071 281.415C50.8231 286.765 60.6308 289.44 71.3301 289.44C76.9345 289.44 82.2842 288.93 87.3791 287.911C92.474 286.892 96.932 285.109 100.753 282.562C104.574 280.014 107.631 276.766 109.924 272.818C112.217 268.869 113.363 263.965 113.363 258.106C113.363 248.68 108.841 241.611 99.7979 236.898C90.7544 232.186 77.6988 227.791 60.6308 223.715C55.2812 222.442 49.6131 220.85 43.6266 218.939C37.6401 217.028 32.0994 214.226 27.0045 210.532C21.9096 206.839 17.7063 202.189 14.3946 196.585C11.0829 190.981 9.42706 183.975 9.42706 175.569C9.42706 166.398 11.2103 158.564 14.7767 152.068C18.3431 145.572 23.1196 140.223 29.1061 136.019C35.0926 131.816 41.9071 128.696 49.5494 126.658C57.1918 124.62 65.0889 123.601 73.2407 123.601C85.7232 123.601 97.8236 126.403 109.542 132.007C121.26 137.612 130.049 145.509 135.908 155.698L116.038 170.601Z" fill="#ffffff"/>
<path d="M303.276 191.618C303.276 176.078 299.2 164.487 291.048 156.845C282.896 149.202 271.05 145.381 255.511 145.381C244.812 145.381 234.877 147.292 225.706 151.113C216.535 154.934 208.765 160.029 202.397 166.398L187.876 149.202C195.264 141.815 205.008 135.701 217.108 130.861C229.208 126.021 242.901 123.601 258.186 123.601C267.866 123.601 276.909 124.938 285.316 127.613C293.723 130.288 301.11 134.3 307.479 139.65C313.848 144.999 318.815 151.75 322.381 159.902C325.948 168.054 327.731 177.607 327.731 188.561L327.731 266.895C327.731 273.773 327.986 280.906 328.495 288.293C329.005 295.681 329.769 301.922 330.788 307.017L307.479 307.017C306.715 302.686 306.078 297.974 305.568 292.879C305.059 287.784 304.804 282.816 304.804 277.976L304.04 277.976C295.888 289.949 286.653 298.547 276.336 303.769C266.019 308.991 253.6 311.603 239.08 311.603C232.202 311.603 225.133 310.647 217.872 308.737C210.612 306.826 203.989 303.705 198.002 299.375C192.016 295.044 187.048 289.44 183.1 282.562C179.151 275.683 177.177 267.277 177.177 257.342C177.177 243.586 180.679 232.695 187.685 224.671C194.69 216.646 204.052 210.66 215.771 206.711C227.489 202.763 240.927 200.215 256.084 199.069C271.241 197.922 286.972 197.349 303.276 197.349L303.276 191.618ZM295.633 217.602C284.934 217.602 274.171 218.047 263.344 218.939C252.518 219.831 242.71 221.614 233.921 224.289C225.133 226.963 217.936 230.848 212.332 235.943C206.727 241.038 203.925 247.789 203.925 256.195C203.925 262.564 205.135 267.914 207.555 272.244C209.975 276.575 213.223 280.078 217.299 282.753C221.375 285.427 225.897 287.338 230.864 288.484C235.832 289.631 240.863 290.204 245.958 290.204C255.129 290.204 263.281 288.612 270.413 285.427C277.546 282.243 283.533 277.912 288.373 272.435C293.213 266.958 296.907 260.653 299.454 253.521C302.002 246.388 303.276 238.873 303.276 230.976L303.276 217.602L295.633 217.602Z" fill="#ffffff"/>
<path d="M421.35 307.017L395.366 307.017L395.366 18.1361L421.35 18.1361L421.35 307.017Z" fill="#ffffff"/>
<path d="M627.311 203.845C626.547 187.032 621.134 173.085 611.071 162.003C601.009 150.922 586.68 145.381 568.083 145.381C559.422 145.381 551.397 146.973 544.01 150.158C536.622 153.342 530.126 157.673 524.522 163.15C518.917 168.627 514.459 174.868 511.148 181.874C507.836 188.879 505.925 196.203 505.416 203.845L627.311 203.845ZM653.678 212.252C653.678 214.035 653.678 215.946 653.678 217.984C653.678 220.022 653.55 222.187 653.295 224.48L505.034 224.48C505.288 233.396 507.072 241.802 510.383 249.699C513.695 257.597 518.28 264.475 524.14 270.334C529.999 276.193 536.877 280.842 544.774 284.281C552.671 287.72 561.205 289.44 570.376 289.44C583.877 289.44 595.532 286.319 605.34 280.078C615.147 273.837 622.599 266.64 627.694 258.488L647.182 273.773C636.482 287.274 624.7 296.955 611.836 302.814C598.971 308.673 585.151 311.603 570.376 311.603C557.129 311.603 544.838 309.246 533.501 304.533C522.165 299.821 512.421 293.261 504.269 284.854C496.118 276.448 489.685 266.513 484.973 255.049C480.26 243.586 477.903 231.103 477.903 217.602C477.903 204.1 480.196 191.618 484.781 180.154C489.367 168.69 495.736 158.755 503.887 150.349C512.039 141.942 521.592 135.383 532.546 130.67C543.5 125.957 555.346 123.601 568.083 123.601C582.094 123.601 594.449 125.957 605.149 130.67C615.848 135.383 624.764 141.751 631.897 149.776C639.03 157.8 644.443 167.162 648.137 177.861C651.831 188.561 653.678 200.024 653.678 212.252Z" fill="#ffffff"/>
</g>
</g>
</svg>
